<?xml version="1.0" standalone="no"?>
<!DOCTYPE svg PUBLIC "-//W3C//DTD SVG 20010904//EN"
 "http://www.w3.org/TR/2001/REC-SVG-20010904/DTD/svg10.dtd">
<svg version="1.0" xmlns="http://www.w3.org/2000/svg"
 width="2424.000000pt" height="880.000000pt" viewBox="0 0 2424.000000 880.000000"
 preserveAspectRatio="xMidYMid meet">

<g transform="translate(0.000000,880.000000) scale(0.100000,-0.100000)"
fill="#000000" stroke="none">
<path d="M0 4400 l0 -4400 12120 0 12120 0 0 4400 0 4400 -12120 0 -12120 0 0
-4400z m21840 2149 c70 -33 131 -95 167 -167 24 -50 28 -69 28 -147 0 -71 -5
-100 -22 -137 -30 -66 -105 -143 -172 -175 -49 -24 -68 -28 -146 -28 -76 0
-99 4 -146 26 -69 33 -129 91 -166 161 -25 48 -28 63 -28 153 0 86 3 106 24
145 51 95 102 142 197 181 71 28 190 23 264 -12z m-17581 -868 l201 -210 0
-383 0 -383 -157 -151 -157 -150 183 -140 182 -139 0 -397 -1 -397 -92 -89
c-51 -49 -154 -146 -228 -215 l-135 -127 -562 0 -563 0 0 1495 0 1495 564 0
564 0 201 -209z m1061 -996 l0 -1205 300 0 300 0 0 -290 0 -290 -625 0 -625 0
0 1495 0 1495 325 0 325 0 0 -1205z m2093 984 l227 -221 0 -1052 0 -1053 -229
-221 -229 -222 -324 0 -323 1 -237 222 -238 222 0 1051 0 1051 237 221 237
222 325 0 326 0 228 -221z m1786 -1 l221 -223 0 -357 0 -358 -335 0 -335 0 0
285 0 285 -120 0 -120 0 0 -910 0 -910 120 0 120 0 0 350 0 349 331 3 c182 2
333 1 335 -1 2 -2 4 -191 4 -420 l0 -416 -222 -222 -223 -223 -330 0 -330 1
-237 222 -238 222 0 1051 0 1051 237 221 237 222 332 0 331 0 222 -222z m1072
-375 c0 -358 4 -590 9 -578 7 16 130 375 377 1103 l25 72 329 0 c200 0 329 -4
329 -9 0 -6 -121 -314 -268 -685 l-269 -674 324 -808 c177 -445 323 -810 323
-812 0 -1 -147 -1 -326 0 l-326 3 -257 637 c-142 351 -261 641 -264 645 -4 3
-7 -285 -7 -640 l0 -647 -325 0 -325 0 0 1495 0 1495 325 0 325 0 1 -597z
m2587 445 c81 -84 171 -178 200 -209 l52 -56 -1 -389 0 -389 -150 -134 c-82
-73 -149 -137 -149 -141 0 -5 81 -73 180 -152 l180 -143 0 -397 0 -396 -231
-216 -230 -216 -565 0 -564 0 0 1495 0 1495 565 0 565 0 148 -152z m1140
-1055 l2 -1203 130 0 130 0 0 1205 0 1205 330 0 330 0 0 -1274 0 -1274 -229
-221 -229 -221 -323 0 -324 0 -237 226 -238 225 0 1270 0 1269 328 -2 327 -3
3 -1202z m2464 979 l217 -227 1 -262 0 -263 -325 0 -325 0 0 190 0 190 -130 0
-130 0 0 -293 0 -293 242 -22 242 -21 213 -213 213 -213 0 -445 0 -445 -222
-222 -223 -223 -330 0 -330 1 -228 223 -227 223 2 259 3 259 323 3 322 2 0
-190 0 -190 125 0 125 0 0 289 0 289 -32 5 c-18 3 -125 13 -238 23 l-205 17
-212 211 -213 211 0 449 0 449 228 228 227 229 335 0 335 -1 217 -227z m1738
-67 l0 -295 -185 0 -185 0 0 -1200 0 -1200 -330 0 -330 0 0 1200 0 1200 -185
0 -185 0 0 295 0 295 700 0 700 0 0 -295z m1380 0 c0 -162 0 -298 0 -302 0 -5
-130 -9 -290 -11 l-290 -2 0 -270 0 -270 235 0 235 0 0 -270 0 -270 -227 -2
-228 -3 -3 -367 -2 -368 290 0 290 0 -2 -277 -3 -278 -612 -3 -613 -2 0 1495
0 1495 610 0 610 0 0 -295z m1512 82 l198 -212 0 -385 0 -385 -150 -135 c-83
-73 -150 -137 -150 -140 0 -4 81 -71 180 -150 l180 -144 0 -613 0 -613 -340 0
-340 0 0 610 0 610 -125 0 -125 0 0 -610 0 -610 -325 0 -325 0 0 1495 0 1495
563 0 562 0 197 -213z"/>
<path d="M21627 6530 c-230 -58 -311 -344 -144 -508 92 -90 228 -113 339 -59
109 54 171 152 171 272 0 83 -23 142 -78 203 -68 76 -193 115 -288 92z m188
-114 c41 -17 55 -42 55 -96 0 -48 -32 -87 -80 -96 -16 -4 -30 -9 -30 -12 0 -2
20 -36 45 -74 62 -94 64 -100 30 -96 -24 2 -38 18 -83 91 l-55 88 -40 -3 -39
-3 -2 -85 c-1 -84 -1 -85 -26 -85 l-25 0 -3 193 -2 192 110 0 c73 0 122 -5
145 -14z"/>
<path d="M21615 6325 l0 -65 80 0 c98 0 125 14 125 65 0 51 -27 65 -125 65
l-80 0 0 -65z"/>
<path d="M3570 4990 l0 -300 130 0 130 0 0 300 0 300 -130 0 -130 0 0 -300z"/>
<path d="M3580 3795 l0 -325 125 0 125 0 0 325 0 325 -125 0 -125 0 0 -325z"/>
<path d="M6730 4390 l0 -910 125 0 125 0 -2 908 -3 907 -122 3 -123 3 0 -911z"/>
<path d="M12220 5005 l0 -305 130 0 130 0 0 305 0 305 -130 0 -130 0 0 -305z"/>
<path d="M12240 3795 l0 -325 120 0 120 0 0 325 0 325 -120 0 -120 0 0 -325z"/>
<path d="M20410 5000 l0 -300 130 0 130 0 0 300 0 300 -130 0 -130 0 0 -300z"/>
</g>
</svg>
